<svg width="1300" height="1300" viewBox="0 0 1300 1300" fill="none" xmlns="http://www.w3.org/2000/svg">
<path d="M1106.86 247C1123.82 247 1139.49 251.119 1151.84 261.099C1164.31 271.18 1171.06 285.35 1173.65 300.872C1177.16 321.923 1174.54 345.286 1156.36 364.904C1144.53 377.669 1128.77 385.079 1110.37 385.09C959.02 385.183 807.67 385.169 656.333 385.18H649.433L644 380.926L518.669 282.772L473.027 247.029L530.999 247.026L1106.86 247L1106.86 267V247Z" fill="#B8ED00" stroke="#B8ED00" stroke-width="40"/>
<path d="M1106.69 580.609L1108.21 580.622C1123.93 580.882 1138.8 585.167 1150.76 594.51C1163.28 604.286 1170.93 618.293 1173.64 634.506C1177.17 655.589 1174.54 678.981 1156.29 698.611C1144.42 711.379 1128.63 718.778 1110.2 718.789H884.226L901.713 688.731L958.834 590.552L964.618 580.609H1106.69Z" fill="#B8ED00" stroke="#B8ED00" stroke-width="40"/>
<path d="M1100.73 914.221L1102.36 914.232C1119.15 914.478 1134.98 918.527 1147.83 927.463C1161.43 936.918 1170.27 950.892 1173.44 967.724C1177.55 989.559 1174.27 1013.47 1153.83 1033.05H1153.83C1140.75 1045.57 1123.91 1052.39 1104.68 1052.4H547.07L574.688 1019.53L657.19 921.354L663.185 914.221H1100.73Z" fill="#B8ED00" stroke="#B8ED00" stroke-width="40"/>
<path d="M354.342 234.5C427.408 234.716 500.474 234.753 573.539 234.586C591.778 234.544 609.993 236.263 628.689 241.632L630.5 242.163L630.668 242.213L630.834 242.271C669.993 255.776 698.11 281.269 709.772 323.382C712.336 332.637 713.447 343.033 714.807 351.437L715.083 353.09L715.187 353.695L715.203 354.311C715.886 380.251 713.812 406.762 704.16 431.861C698.959 445.387 692.942 457.999 686.09 469.654C760.639 469.721 835.327 469.42 909.958 469.913C938.086 470.099 965.667 476.234 990.828 491.728C1021.79 510.792 1036.17 540.515 1039.57 575.38C1040.94 589.364 1040.05 604.043 1040.04 617.818V617.865L1040.04 617.912L1031.54 617.812L1040.04 617.917V617.97C1040.04 617.998 1040.04 618.035 1040.04 618.081C1040.04 618.172 1040.04 618.298 1040.03 618.458C1040.02 618.777 1040.01 619.232 1039.98 619.811C1039.93 620.968 1039.84 622.627 1039.68 624.709C1039.35 628.87 1038.73 634.74 1037.54 641.691C1035.18 655.534 1030.54 673.963 1021.36 691.76C1008.84 715.999 986.44 737.173 965.228 753.044C943.975 768.946 922.916 780.261 912.047 784.435C909.252 785.508 906.981 786.352 905.141 787.017C909.523 816.409 915.332 859.743 920.181 896.811C922.81 916.917 925.161 935.205 926.854 948.466C927.585 954.186 928.192 958.972 928.647 962.564L1037.54 963.086L1047.78 963.135L1045.85 973.187L1029.76 1057.1L1028.44 1064H816.228L814.999 1056.96L774.065 822.42H718.095L671.232 962.883L712.012 963.086L723.302 963.143L720.127 973.977L695.532 1057.89L693.742 1064L687.377 1064L462.535 1064.04L451.156 1064.05L454.382 1053.14L479.199 969.177L480.978 963.16L487.251 963.087L528.344 962.604L567.351 822.42H470.567L469.561 815.074L436.969 577.491L390.364 577.519L341.08 720.395H395.756L392.44 731.355L366.723 816.381L364.896 822.42H116.476L119.879 811.409L146.186 726.317L148.045 720.303L154.341 720.328L194.674 720.491C195.436 717.99 196.424 714.751 197.615 710.84C200.685 700.764 205.11 686.235 210.534 668.426C221.382 632.808 236.221 584.068 252.188 531.581C284.124 426.603 320.566 306.653 338.604 246.716C339.292 244.295 340.514 240.714 343.574 238.032C346.97 235.056 351.035 234.49 354.342 234.5ZM661.691 503.182C636.225 531.492 603.301 551.061 562.402 560.753C566.77 587.595 570.449 614.278 574.112 640.862C577.771 667.41 581.419 693.86 585.743 720.455L594.356 720.381C605.945 682.603 644.293 559.67 661.691 503.182ZM848.588 564.265C830.053 562.514 809.657 563.497 790.174 564.295C787.653 564.398 784.63 564.392 782.033 564.357L740.747 700.571C744.911 700.568 749.941 700.564 755.372 700.562C769.843 700.556 787.184 700.561 798.617 700.601C808.306 700.634 820.431 698.914 831.976 695.794C843.605 692.651 853.798 688.312 860.148 683.587C884.141 665.12 892.305 643.547 896.181 615.279C898.147 600.935 894.887 591.34 891.123 585.151C887.272 578.82 882.559 575.516 880.892 574.4C873.077 569.169 860.651 565.404 848.588 564.265ZM522.785 335.04C501.054 334.36 484.106 335.074 462.422 335.058L458.02 335.044H450.876L415.287 465.614C419.974 465.628 425.819 465.644 432.164 465.654C447.644 465.679 466.058 465.68 477.91 465.58C490.405 465.475 502.318 463.125 513.363 457.815C545.276 442.473 562.932 416.782 566.357 380.079C568.2 360.339 559.664 345.895 544.601 339.741C537.745 336.94 530.061 335.268 522.785 335.04Z" fill="#020618" stroke="#020618" stroke-width="17"/>
</svg>
