<svg width="1094" height="926" viewBox="0 0 1094 926" fill="none" xmlns="http://www.w3.org/2000/svg">
<path d="M1004.89 26.1765H1004.89C1022.33 26.1766 1038.3 30.9255 1050.65 42.0056C1062.88 52.9808 1069.26 68.1074 1071.72 84.4587C1075.09 106.812 1072.67 131.502 1055.07 152.585C1043.49 166.447 1027.57 175.051 1008.39 175.064C857.045 175.168 705.694 175.152 554.357 175.164H546.879L541.234 170.258L415.902 61.2996L375.538 26.2087L429.023 26.2058L1004.89 26.1765H1004.89Z" fill="#B8ED00" stroke="#B8ED00" stroke-width="40"/>
<path d="M1005.31 389.164L1006.88 389.178C1023.05 389.478 1038.17 394.403 1050.12 404.777C1062.45 415.475 1069.66 430.454 1072.22 447.441C1075.59 469.802 1073.17 494.5 1055.54 515.583C1043.94 529.445 1028.01 538.038 1008.82 538.051H784.98L800.306 508.776L857.306 399.888L862.919 389.164H1005.31Z" fill="#B8ED00" stroke="#B8ED00" stroke-width="40"/>
<path d="M999.304 756.164L1000.97 756.177C1018.16 756.458 1034.27 761.085 1047.18 771.065C1060.7 781.511 1069.05 796.543 1072.03 814.125C1075.93 837.147 1072.98 862.398 1053.11 883.544C1040.21 897.271 1023.15 905.151 1003.25 905.164H448.825L473.072 873.1L555.501 764.1L561.503 756.164H999.304Z" fill="#B8ED00" stroke="#B8ED00" stroke-width="40"/>
<path d="M254.541 9.99976C328.142 10.2348 401.744 10.2751 475.344 10.0935C493.869 10.0478 512.432 11.936 531.504 17.8533L533.351 18.4382L533.56 18.5056L533.766 18.5828C573.799 33.5026 602.263 61.6058 614.021 107.486C616.605 117.567 617.726 128.894 619.095 138.037L619.373 139.835L619.478 140.497L619.495 141.167C620.182 169.397 618.096 198.264 608.362 225.617C603.236 240.022 597.315 253.492 590.581 265.979C665.05 266.045 739.692 265.727 814.263 266.26C842.945 266.464 871.107 273.236 896.765 290.307C928.384 311.346 942.842 343.96 946.257 381.812C947.63 397.035 946.74 413.015 946.73 428.01V428.41L946.698 428.808C944.424 456.954 938.577 483.153 928.078 508.131C919.582 528.343 908.098 546.051 894.489 561.922L894.29 562.154L894.078 562.373C877.871 579.092 859.618 593.828 837.823 602.873C829.139 606.476 819.983 609.513 810.891 612.619C815.299 644.607 821.121 691.537 825.983 731.707C828.632 753.594 831.001 773.502 832.707 787.937C833.397 793.779 833.977 798.726 834.426 802.545L942.782 803.106L955.095 803.17L952.507 815.208L932.739 907.16L931.032 915.098L922.912 915.057L811.83 914.5V914.499L727.018 914.452L718.509 914.447L717.152 906.047L676.036 651.477H622.179L575.43 802.894L614.853 803.106L627.854 803.176L624.451 815.723L599.676 907.07L597.674 914.451L590.026 914.452L363.526 914.5L350.421 914.503L353.879 901.861L378.879 810.468L380.866 803.202L388.397 803.106L428.569 802.597L467.483 651.477H370.275L369.166 642.736L336.429 384.86L292.024 384.888L242.853 538.923H297.902L294.349 551.618L268.44 644.173L266.396 651.477H13.2626L16.91 638.726L43.41 546.099L45.493 538.817L53.0682 538.85L92.7216 539.024L106.808 494.747C143.211 364.301 179.67 233.891 216.006 103.431C223.329 77.1387 230.311 50.7028 237.203 24.1951C237.871 21.6256 239.101 17.4664 242.455 14.2898C246.264 10.6829 250.903 9.98819 254.541 9.99976ZM561.604 307.938C536.592 336.253 504.77 356.101 465.631 366.317C470.003 395.392 473.691 424.296 477.363 453.093C481.017 481.74 484.659 510.281 488.966 538.975L495.102 538.919C499.707 522.954 504.871 506.285 509.985 489.739C515.894 470.621 521.738 451.659 526.686 433.829C538.336 391.85 550.017 349.91 561.604 307.938ZM752.215 370.451C733.726 368.564 713.35 369.622 693.673 370.493C691.479 370.59 688.931 370.601 686.604 370.579L645.438 517.343C649.285 517.339 653.749 517.336 658.521 517.334C673.099 517.328 690.571 517.333 702.094 517.376C711.618 517.411 723.635 515.579 735.122 512.224C746.697 508.843 756.726 504.207 762.91 499.237C786.778 479.381 795.018 456.087 798.932 425.244C800.915 409.611 797.615 399.191 793.875 392.547C790.066 385.781 785.442 382.297 783.87 381.16C776.288 375.676 764.108 371.665 752.215 370.451ZM424.15 120.937C402.268 120.197 385.38 120.976 363.426 120.958L358.965 120.942H353.03L317.555 261.587C321.974 261.6 327.255 261.615 332.934 261.625C348.529 261.652 367.068 261.651 378.995 261.543C391.297 261.431 402.986 258.937 413.829 253.303C445.415 236.895 463.218 209.262 466.677 169.218C468.552 147.509 459.777 132.239 445.396 125.89C438.691 122.93 431.199 121.176 424.15 120.937Z" fill="#121211" stroke="#121211" stroke-width="20"/>
</svg>
