<svg width="1400" height="1400" viewBox="0 0 1400 1400" fill="none" xmlns="http://www.w3.org/2000/svg">
<rect width="1400" height="1400" fill="#FAFAFA"/>
<path d="M1156.86 297C1173.82 297 1189.49 301.119 1201.84 311.099C1214.31 321.18 1221.06 335.35 1223.65 350.872C1227.16 371.923 1224.54 395.286 1206.36 414.904C1194.53 427.669 1178.77 435.079 1160.37 435.09C1009.02 435.183 857.67 435.169 706.333 435.18H699.433L694 430.926L568.669 332.772L523.027 297.029L580.999 297.026L1156.86 297H1156.86Z" fill="#B8ED00" stroke="#B8ED00" stroke-width="40"/>
<path d="M1156.69 630.609L1158.21 630.622C1173.93 630.882 1188.8 635.167 1200.76 644.51C1213.28 654.286 1220.93 668.293 1223.64 684.506C1227.17 705.589 1224.54 728.981 1206.29 748.611C1194.42 761.379 1178.63 768.778 1160.2 768.789H934.226L951.713 738.731L1008.83 640.552L1014.62 630.609H1156.69Z" fill="#B8ED00" stroke="#B8ED00" stroke-width="40"/>
<path d="M1150.73 964.221L1152.36 964.232C1169.15 964.478 1184.98 968.527 1197.83 977.463C1211.43 986.918 1220.27 1000.89 1223.44 1017.72C1227.55 1039.56 1224.27 1063.47 1203.83 1083.05H1203.83C1190.75 1095.57 1173.91 1102.39 1154.68 1102.4H597.07L624.688 1069.53L707.19 971.354L713.185 964.221H1150.73Z" fill="#B8ED00" stroke="#B8ED00" stroke-width="40"/>
<path d="M404.342 284.5C477.408 284.716 550.474 284.753 623.539 284.586C641.778 284.544 659.993 286.263 678.689 291.632L680.5 292.163L680.668 292.214L680.834 292.271C719.993 305.776 748.11 331.269 759.772 373.382C762.336 382.637 763.447 393.033 764.807 401.437L765.083 403.09L765.187 403.695L765.203 404.311C765.886 430.251 763.812 456.762 754.16 481.861C748.959 495.387 742.942 507.999 736.09 519.654C810.639 519.721 885.327 519.42 959.958 519.913C988.086 520.099 1015.67 526.234 1040.83 541.728C1071.79 560.792 1086.17 590.515 1089.57 625.38C1090.94 639.364 1090.05 654.043 1090.04 667.818V667.865L1090.04 667.912L1081.54 667.812L1090.04 667.917V667.97C1090.04 667.998 1090.04 668.035 1090.04 668.081C1090.04 668.172 1090.04 668.298 1090.03 668.458C1090.02 668.777 1090.01 669.232 1089.98 669.811C1089.93 670.968 1089.84 672.627 1089.68 674.709C1089.35 678.87 1088.73 684.74 1087.54 691.691C1085.18 705.534 1080.54 723.963 1071.36 741.76C1058.84 765.999 1036.44 787.173 1015.23 803.044C993.975 818.946 972.916 830.261 962.047 834.435C959.252 835.508 956.981 836.352 955.141 837.017C959.523 866.409 965.332 909.743 970.181 946.811C972.81 966.917 975.161 985.205 976.854 998.466C977.585 1004.19 978.192 1008.97 978.647 1012.56L1087.54 1013.09L1097.78 1013.13L1095.85 1023.19L1079.76 1107.1L1078.44 1114H866.228L864.999 1106.96L824.065 872.42H768.095L721.232 1012.88L762.012 1013.09L773.302 1013.14L770.127 1023.98L745.532 1107.89L743.742 1114L737.377 1114L512.535 1114.04L501.156 1114.05L504.382 1103.14L529.199 1019.18L530.978 1013.16L537.251 1013.09L578.344 1012.6L617.351 872.42H520.567L519.561 865.074L486.969 627.491L440.364 627.519L391.08 770.395H445.756L442.44 781.355L416.723 866.381L414.896 872.42H166.476L169.879 861.409L196.186 776.317L198.045 770.303L204.341 770.328L244.674 770.491C245.436 767.99 246.424 764.751 247.615 760.84C250.685 750.764 255.11 736.235 260.534 718.426C271.382 682.808 286.221 634.068 302.188 581.581C334.124 476.603 370.566 356.653 388.604 296.716C389.292 294.295 390.514 290.714 393.574 288.032C396.97 285.056 401.035 284.49 404.342 284.5ZM711.691 553.182C686.225 581.492 653.301 601.061 612.402 610.753C616.77 637.595 620.449 664.278 624.112 690.862C627.771 717.41 631.419 743.86 635.743 770.455L644.356 770.381C655.945 732.603 694.293 609.67 711.691 553.182ZM898.588 614.265C880.053 612.514 859.657 613.497 840.174 614.295C837.653 614.398 834.63 614.392 832.033 614.357L790.747 750.571C794.911 750.568 799.941 750.564 805.372 750.562C819.843 750.556 837.184 750.561 848.617 750.601C858.306 750.634 870.431 748.914 881.976 745.794C893.605 742.651 903.798 738.312 910.148 733.587C934.141 715.12 942.305 693.547 946.181 665.279C948.147 650.935 944.887 641.34 941.123 635.151C937.272 628.82 932.559 625.516 930.892 624.4C923.077 619.169 910.651 615.404 898.588 614.265ZM572.785 385.04C551.054 384.36 534.106 385.074 512.422 385.058L508.02 385.044H500.876L465.287 515.614C469.974 515.628 475.819 515.644 482.164 515.654C497.644 515.679 516.058 515.68 527.91 515.58C540.405 515.475 552.318 513.125 563.363 507.815C595.276 492.473 612.932 466.782 616.357 430.079C618.2 410.339 609.664 395.895 594.601 389.741C587.745 386.94 580.061 385.268 572.785 385.04Z" fill="#020618" stroke="#020618" stroke-width="17"/>
</svg>
